# xmcd
#
# Track frame offsets:
#	150
#	18035
#	43372
#	67640
#	85577
#	106867
#	131572
#	154892
#	167035
#	191215
#
# Disc length: 2773 seconds
#
# Revision: 6
# Processed by: cddbd v1.5.2PL0 Copyright (c) Steve Scherf et al.
# Submitted via: EZCDAudioConverter 8.0.2.1
#
DISCID=770ad30a
DTITLE=Mạnh Đình 4 - Trúc đào
DYEAR=1995
DGENRE=Blues
TTITLE0=Trúc đào
TTITLE1=Tìn xuân
TTITLE2=Sầu lẻ bóng
TTITLE3=Ngày em đi
TTITLE4=Sầu lẻ bóng 3
TTITLE5=Phố đêm
TTITLE6=Cafe đắng
TTITLE7=Quên cả lối về
TTITLE8=Sầu lẻ bóng 2
TTITLE9=Nếu tôi đưa em về
EXTD=
EXTT0=
EXTT1=
EXTT2=
EXTT3=
EXTT4=
EXTT5=
EXTT6=
EXTT7=
EXTT8=
EXTT9=
PLAYORDER=
